<svg xmlns="http://www.w3.org/2000/svg" width="550" height="10" viewBox="0 0 550 10" fill="none"><g clip-path="url(#clip0_20086_3144)"><rect width="10" height="10" rx="5" fill="#E15858"></rect><rect x="20" width="10" height="10" rx="5" fill="#E15858"></rect><rect x="40" width="10" height="10" rx="5" fill="#E15858"></rect><rect x="60" width="10" height="10" rx="5" fill="#E15858"></rect><rect x="80" width="10" height="10" rx="5" fill="#E15858"></rect><rect x="100" width="10" height="10" rx="5" fill="#E15858"></rect><rect x="120" width="10" height="10" rx="5" fill="#E15858"></rect><rect x="140" width="10" height="10" rx="5" fill="#E15858"></rect><rect x="160" width="10" height="10" rx="5" fill="#E15858"></rect><rect x="180" width="10" height="10" rx="5" fill="#E15858"></rect><rect x="200" width="10" height="10" rx="5" fill="#E15858"></rect><rect x="220" width="10" height="10" rx="5" fill="#E15858"></rect><rect x="240" width="10" height="10" rx="5" fill="#E15858"></rect><rect x="260" width="10" height="10" rx="5" fill="#E15858"></rect><rect x="280" width="10" height="10" rx="5" fill="#E15858"></rect><rect x="300" width="10" height="10" rx="5" fill="#E15858"></rect><rect x="320" width="10" height="10" rx="5" fill="#E15858"></rect><rect x="340" width="10" height="10" rx="5" fill="#E15858"></rect><rect x="360" width="10" height="10" rx="5" fill="#E15858"></rect><rect x="380" width="10" height="10" rx="5" fill="#E15858"></rect><rect x="400" width="10" height="10" rx="5" fill="#E15858"></rect><rect x="420" width="10" height="10" rx="5" fill="#E15858"></rect><rect x="440" width="10" height="10" rx="5" fill="#E15858"></rect><rect x="460" width="10" height="10" rx="5" fill="#E15858"></rect><rect x="480" width="10" height="10" rx="5" fill="#E15858"></rect><rect x="500" width="10" height="10" rx="5" fill="#E15858"></rect><rect x="520" width="10" height="10" rx="5" fill="#E15858"></rect><rect x="540" width="10" height="10" rx="5" fill="#E15858"></rect></g><defs><clipPath id="clip0_20086_3144"><rect width="550" height="10" fill="white"></rect></clipPath></defs></svg>