<svg xmlns="http://www.w3.org/2000/svg" width="92" height="109" viewBox="0 0 92 109" fill="none"><g clip-path="url(#clip0_20086_3132)"><path fill-rule="evenodd" clip-rule="evenodd" d="M46 0C38.146 30.183 18 46 18 46H30C28.865 50.92 9 70 9 70H23C20.3 75.949 0 96 0 96H40V109H52V96H92C92 96 69 74.6 69 70C69 70.09 82 70 82 70C82 70 62.379 50.258 62 46C62.095 45.905 74 46 74 46C74 46 53.1 29.9 46 0Z" fill="#769960"></path></g><defs><clipPath id="clip0_20086_3132"><rect width="92" height="109" fill="white"></rect></clipPath></defs></svg>